<?xml version="1.0" encoding="utf-8"?>
<!-- Generator: Adobe Illustrator 22.0.1, SVG Export Plug-In . SVG Version: 6.00 Build 0)  -->
<svg version="1.1" id="Layer_1" xmlns="http://www.w3.org/2000/svg" xmlns:xlink="http://www.w3.org/1999/xlink" x="0px" y="0px"
	 viewBox="0 0 841.9 797.8" style="enable-background:new 0 0 841.9 797.8;" xml:space="preserve">
<style type="text/css">
	.st0{fill:#515151;}
	.st1{fill:url(#SVGID_1_);}
	.st2{fill:url(#SVGID_2_);}
	.st3{fill:url(#SVGID_3_);}
	.st4{fill:url(#SVGID_4_);}
	.st5{fill:url(#SVGID_5_);}
	.st6{fill:url(#SVGID_6_);}
	.st7{fill:url(#SVGID_7_);}
	.st8{fill:url(#SVGID_8_);}
	.st9{fill:url(#SVGID_9_);}
	.st10{fill:url(#SVGID_10_);}
	.st11{fill:url(#SVGID_11_);}
	.st12{fill:url(#SVGID_12_);}
	.st13{fill:#64FFB5;}
	.st14{fill:url(#SVGID_13_);}
	.st15{fill:url(#SVGID_14_);}
	.st16{fill:url(#SVGID_15_);}
	.st17{fill:url(#SVGID_16_);}
	.st18{fill:url(#SVGID_17_);}
	.st19{fill:url(#SVGID_18_);}
	.st20{fill:url(#SVGID_19_);}
	.st21{fill:url(#SVGID_20_);}
	.st22{fill:url(#SVGID_21_);}
	.st23{fill:url(#SVGID_22_);}
	.st24{fill:url(#SVGID_23_);}
	.st25{fill:url(#SVGID_24_);}
	.st26{fill:url(#SVGID_25_);}
	.st27{fill:url(#SVGID_26_);}
	.st28{fill:url(#SVGID_27_);}
	.st29{fill:url(#SVGID_28_);}
	.st30{fill:url(#SVGID_29_);}
	.st31{fill:url(#SVGID_30_);}
	.st32{fill:url(#SVGID_31_);}
	.st33{fill:url(#SVGID_32_);}
	.st34{fill:url(#SVGID_33_);}
	.st35{fill:url(#SVGID_34_);}
	.st36{fill:url(#SVGID_35_);}
	.st37{fill:url(#SVGID_36_);}
	.st38{fill:url(#SVGID_37_);}
	.st39{fill:url(#SVGID_38_);}
	.st40{fill:url(#SVGID_39_);}
	.st41{fill:url(#SVGID_40_);}
	.st42{fill:url(#SVGID_41_);}
	.st43{fill:url(#SVGID_42_);}
	.st44{fill:url(#SVGID_43_);}
	.st45{fill:url(#SVGID_44_);}
	.st46{fill:url(#SVGID_45_);}
	.st47{fill:url(#SVGID_46_);}
	.st48{fill:url(#SVGID_47_);}
	.st49{fill:url(#SVGID_48_);}
</style>
<rect class="st0" width="841.9" height="797.8"/>
<g>
	<g>
		
			<image style="overflow:visible;" width="2205" height="2823" xlink:href="10F2E20A.png"  transform="matrix(0.24 0 0 0.24 172.8368 21.0652)">
		</image>
	</g>
	<g>
		<path class="st13" d="M642.4,635.3c-11.7,0-20.5-1.5-29.1,0.3c-15.5,3.2-23.9-6.2-31.5-27c-29.7-80.7-60.5-160.6-91-240.6
			c-22.2-58.2-44-116.8-66-175.1c-10.2-27-11.6-27.1-21.6-1c-30.6,80-60.9,160.3-91.3,240.5c-24.1,63.6-48,127.3-72,191
			c-2.4,6.5-5.1,12-11,11.9c-13.7-0.3-27.5-0.1-43.5-0.1C262,432.7,337.5,233,413.9,31.1C490.2,232.9,565.7,432.5,642.4,635.3z"/>
	</g>
	
		<linearGradient id="SVGID_1_" gradientUnits="userSpaceOnUse" x1="282.2426" y1="380.6638" x2="283.6929" y2="505.4798" gradientTransform="matrix(0.989 2.901801e-02 2.901801e-02 0.9233 -15.5637 41.1371)">
		<stop  offset="0" style="stop-color:#419102"/>
		<stop  offset="6.670326e-02" style="stop-color:#4E9F1F;stop-opacity:0.9333"/>
		<stop  offset="0.1979" style="stop-color:#66B853;stop-opacity:0.8021"/>
		<stop  offset="0.3314" style="stop-color:#7ACE7F;stop-opacity:0.6686"/>
		<stop  offset="0.465" style="stop-color:#8AE0A3;stop-opacity:0.535"/>
		<stop  offset="0.5985" style="stop-color:#97EDBF;stop-opacity:0.4015"/>
		<stop  offset="0.732" style="stop-color:#A0F7D3;stop-opacity:0.268"/>
		<stop  offset="0.8657" style="stop-color:#A5FDDF;stop-opacity:0.1343"/>
		<stop  offset="1" style="stop-color:#A7FFE3;stop-opacity:0"/>
	</linearGradient>
	<polygon class="st1" points="280.2,516.1 236.7,499.6 274.1,400.8 317.6,417.3 	"/>
	<g>
		
			<linearGradient id="SVGID_2_" gradientUnits="userSpaceOnUse" x1="-414.5852" y1="-692.2497" x2="-413.4331" y2="-593.1025" gradientTransform="matrix(0.1003 -0.995 -0.9291 -9.363431e-02 15.2796 -43.7298)">
			<stop  offset="0" style="stop-color:#CEF42F"/>
			<stop  offset="1" style="stop-color:#3E8903"/>
		</linearGradient>
		<path class="st2" d="M497.7,451.6c9,20.2,26.2,26.1,35.2,29.2c29.6,10.2,58.4-2.3,97.4-19.2c4-1.7,28.5-12.5,28.5-12.5l0,0
			c0,0-15.9-16.8-17.2-18.2c-25.8-27.3-38.7-40.9-49.7-48.3c-25.8-17.3-71.2-24.6-90.4,4.5C490.2,404.1,488.9,432,497.7,451.6z"/>
		
			<linearGradient id="SVGID_3_" gradientUnits="userSpaceOnUse" x1="-417.0859" y1="-648.2177" x2="-415.4312" y2="-505.8162" gradientTransform="matrix(0.1003 -0.995 -0.9291 -9.363431e-02 15.2796 -43.7298)">
			<stop  offset="0" style="stop-color:#CEF42F"/>
			<stop  offset="1" style="stop-color:#3E8903"/>
		</linearGradient>
		<path class="st3" d="M636.6,448.4c-0.4,1.4-29.5-10-71.8-18.6c-19.7-4-36.1-7.3-57.3-8.3c-37.8-1.8-110.4,3-111.1-0.1
			c-0.2-0.7-0.3-1.5-0.3-1.5c-0.3-1.4-0.5-3.1-0.5-3.3c0.1-1.7,24.7-11.9,112.2-2.6c46.7,5,69.8,11.2,86.7,16.7
			C617.1,438.2,636.9,447.3,636.6,448.4z"/>
	</g>
	
		<linearGradient id="SVGID_4_" gradientUnits="userSpaceOnUse" x1="503.8911" y1="646.4358" x2="504.7211" y2="717.8606" gradientTransform="matrix(0.96 0.28 0.2614 -0.8964 -281.5395 955.2262)">
		<stop  offset="0" style="stop-color:#CEF42F"/>
		<stop  offset="1" style="stop-color:#3E8903"/>
	</linearGradient>
	<path class="st4" d="M374.1,430c-15.5,3.7-21.9,15.1-25.3,21.1c-11.1,19.6-6,41.7,0.8,71.5c0.7,3,5.1,21.8,5.1,21.8l0,0
		c0,0,14-9,15.2-9.8c22.7-14.7,34.1-22,40.7-28.8c15.6-16,26.8-47.2,8.7-64.7C408.7,431,389.1,426.4,374.1,430z"/>
	
		<linearGradient id="SVGID_5_" gradientUnits="userSpaceOnUse" x1="399.3939" y1="804.5314" x2="400.8442" y2="929.3474" gradientTransform="matrix(0.7716 0.6036 0.6036 -0.5954 -466.5614 499.6728)">
		<stop  offset="0" style="stop-color:#419102"/>
		<stop  offset="6.670326e-02" style="stop-color:#4E9F1F;stop-opacity:0.9333"/>
		<stop  offset="0.1979" style="stop-color:#66B853;stop-opacity:0.8021"/>
		<stop  offset="0.3314" style="stop-color:#7ACE7F;stop-opacity:0.6686"/>
		<stop  offset="0.465" style="stop-color:#8AE0A3;stop-opacity:0.535"/>
		<stop  offset="0.5985" style="stop-color:#97EDBF;stop-opacity:0.4015"/>
		<stop  offset="0.732" style="stop-color:#A0F7D3;stop-opacity:0.268"/>
		<stop  offset="0.8657" style="stop-color:#A5FDDF;stop-opacity:0.1343"/>
		<stop  offset="1" style="stop-color:#A7FFE3;stop-opacity:0"/>
	</linearGradient>
	<polygon class="st5" points="404.1,188.7 360.6,172.2 326.8,261.4 370.4,277.9 	"/>
	
		<linearGradient id="SVGID_6_" gradientUnits="userSpaceOnUse" x1="704.7325" y1="125.6653" x2="645.4168" y2="235.4959" gradientTransform="matrix(0.9781 -5.570623e-02 6.061050e-02 -0.8456 -227.4542 366.9929)">
		<stop  offset="0" style="stop-color:#419102"/>
		<stop  offset="6.670326e-02" style="stop-color:#4E9F1F;stop-opacity:0.9333"/>
		<stop  offset="0.1979" style="stop-color:#66B853;stop-opacity:0.8021"/>
		<stop  offset="0.3314" style="stop-color:#7ACE7F;stop-opacity:0.6686"/>
		<stop  offset="0.465" style="stop-color:#8AE0A3;stop-opacity:0.535"/>
		<stop  offset="0.5985" style="stop-color:#97EDBF;stop-opacity:0.4015"/>
		<stop  offset="0.732" style="stop-color:#A0F7D3;stop-opacity:0.268"/>
		<stop  offset="0.8657" style="stop-color:#A5FDDF;stop-opacity:0.1343"/>
		<stop  offset="1" style="stop-color:#A7FFE3;stop-opacity:0"/>
	</linearGradient>
	<polygon class="st6" points="449.8,125.5 406.1,141.8 439.7,231.2 483.3,214.8 	"/>
	
		<linearGradient id="SVGID_7_" gradientUnits="userSpaceOnUse" x1="304.2569" y1="1043.4293" x2="307.0614" y2="1168.6635" gradientTransform="matrix(0.8018 -0.562 0.558 0.4386 -352.4849 30.6025)">
		<stop  offset="0" style="stop-color:#419102"/>
		<stop  offset="6.670326e-02" style="stop-color:#4E9F1F;stop-opacity:0.9333"/>
		<stop  offset="0.1979" style="stop-color:#66B853;stop-opacity:0.8021"/>
		<stop  offset="0.3314" style="stop-color:#7ACE7F;stop-opacity:0.6686"/>
		<stop  offset="0.465" style="stop-color:#8AE0A3;stop-opacity:0.535"/>
		<stop  offset="0.5985" style="stop-color:#97EDBF;stop-opacity:0.4015"/>
		<stop  offset="0.732" style="stop-color:#A0F7D3;stop-opacity:0.268"/>
		<stop  offset="0.8657" style="stop-color:#A5FDDF;stop-opacity:0.1343"/>
		<stop  offset="1" style="stop-color:#A7FFE3;stop-opacity:0"/>
	</linearGradient>
	<polygon class="st7" points="541.8,369.3 497.8,386.2 471.3,314.9 514.2,296.2 	"/>
	<g>
		
			<linearGradient id="SVGID_8_" gradientUnits="userSpaceOnUse" x1="-32.2923" y1="785.5846" x2="-30.519" y2="938.1943" gradientTransform="matrix(0.7058 -0.7085 0.7085 0.7058 -317.8345 -326.9222)">
			<stop  offset="0" style="stop-color:#CEF42F"/>
			<stop  offset="1" style="stop-color:#3E8903"/>
		</linearGradient>
		<path class="st8" d="M319.9,418.8c-33.6,8.1-58.8-7.9-72.1-16.4c-43.3-27.7-58.7-76.2-79.5-142c-2.1-6.7-15.1-48.2-15.1-48.2l0,0
			c0,0,36.8,3.8,40,4.2c59.9,6.3,89.8,9.4,110.1,16.2c47.9,15.9,104.4,66.5,89.8,119C384.6,382.3,352.4,410.9,319.9,418.8z"/>
		
			<linearGradient id="SVGID_9_" gradientUnits="userSpaceOnUse" x1="-34.4155" y1="824.7271" x2="-32.6141" y2="979.7571" gradientTransform="matrix(0.7058 -0.7085 0.7085 0.7058 -317.8345 -326.9222)">
			<stop  offset="0" style="stop-color:#CEF42F"/>
			<stop  offset="1" style="stop-color:#3E8903"/>
		</linearGradient>
		<path class="st9" d="M178.3,240.9c-0.4,0.6,7,7.4,21.9,21.2c32.5,29.9,59.3,50.5,67.1,56.7c48,37.3,71.9,56,79.1,59.6
			c0,0,24.9,14.7,35.8,30.9c1,1.5,1.9,3.1,2.7,5c1.3,2.9,4.9,11.8,8.3,11.3c2.7-0.3,4-6.7,4.1-7.4c3.6-18-41.5-46.7-42.5-47.3
			C268.3,315.5,181.1,237,178.3,240.9z"/>
	</g>
	<g>
		<g>
			
				<linearGradient id="SVGID_10_" gradientUnits="userSpaceOnUse" x1="398.191" y1="-59.1127" x2="399.4805" y2="51.8585" gradientTransform="matrix(0.8881 0.3795 -0.4004 0.9368 103.5619 139.0522)">
				<stop  offset="0" style="stop-color:#CEF42F"/>
				<stop  offset="1" style="stop-color:#3E8903"/>
			</linearGradient>
			<path class="st10" d="M395.1,353.3c-13.8-20.4-9.4-42.1-7.1-53.5c7.5-37.3,35.9-61.5,74.3-94.4c3.9-3.4,28.2-24,28.2-24l0,0
				c0,0,6.6,26.1,7.2,28.3c10.8,42.3,16.2,63.5,16.8,79.2c1.4,37-18,89.7-56.5,94.8C435.5,386.7,408.5,373.1,395.1,353.3z"/>
		</g>
		
			<linearGradient id="SVGID_11_" gradientUnits="userSpaceOnUse" x1="496.1182" y1="-154.89" x2="497.9702" y2="4.4939" gradientTransform="matrix(0.7779 0.368 -0.3396 0.7179 30.4204 195.2919)">
			<stop  offset="0" style="stop-color:#CEF42F"/>
			<stop  offset="1" style="stop-color:#3E8903"/>
		</linearGradient>
		<path class="st11" d="M485.3,208.9c-1.3-0.4-6.2,29-20,67.7c-6.4,18-11.7,33.1-21.3,50.9c-17.1,31.7-56.8,88.5-54.6,90.6
			c0.5,0.5,1,1,1,1c1,0.9,2.3,2,2.4,2c1.4,0.8,22-14.2,57.4-90.2c18.9-40.5,25.2-62.4,28.9-79C484.1,229.8,486.4,209.2,485.3,208.9z
			"/>
	</g>
	
		<linearGradient id="SVGID_12_" gradientUnits="userSpaceOnUse" x1="498.5026" y1="704.5475" x2="499.6946" y2="807.1323" gradientTransform="matrix(0.96 0.28 0.1855 -0.636 -239.1943 810.0325)">
		<stop  offset="0" style="stop-color:#CEF42F"/>
		<stop  offset="1" style="stop-color:#3E8903"/>
	</linearGradient>
	<path class="st12" d="M354,530c-0.9-0.4,9.2-13.5,18.3-33.7c4.2-9.4,7.8-17.3,10-27.9c4-18.9,6-56.6,8.2-56.5c0.5,0,1,0.1,1,0.1
		c1,0.1,2.2,0.2,2.3,0.2c1.2,0.3,6.6,14.4-6.4,57.5c-6.9,23-12.9,33.8-18.1,41.6C362.6,521.6,354.8,530.3,354,530z"/>
	<polygon class="st13" points="593,504.5 549.1,521 495.3,379.8 539.5,363.2 	"/>
	<g>
		<path class="st13" d="M189.1,768.9h-13.6l-6.2-12.1l-14.8-29l-14.8,29l-6.2,12.1H120l6.2-12.1l28.4-55.7l28.4,55.7L189.1,768.9z"
			/>
		<path class="st13" d="M208.2,735c0,12,9.8,21.8,21.8,21.8h21.8v-13H230v-12.1h33.9v37.2H230c-18.7,0-33.9-15.2-33.9-33.9
			s15.2-33.9,33.9-33.9h33.9v12.1H230C218,713.3,208.2,723,208.2,735z"/>
		<path class="st13" d="M339.1,756.9l6.2,12.1h-13.6l-6.2-12.1l-6.5-12.7l-0.3-0.6c-2.1-3.5-5.9-5.8-10.3-5.8h-12.1V769h-12.1v-67.8
			h42.8c5,0,9.6,2,12.9,5.3c3.3,3.4,5.3,7.9,5.3,13c0,7.4-4.4,13.7-10.6,16.6c-1.6,0.8-3.4,1.3-5.2,1.5L339.1,756.9z M327.1,725.8
			c0.9,0,1.7-0.2,2.5-0.6c2.2-1,3.7-3.2,3.7-5.6c0-2.2-1.2-3.8-1.8-4.5c-0.8-0.8-2.2-1.7-4.4-1.7h-30.7v12.5L327.1,725.8z"/>
		<path class="st13" d="M365.9,768.9v-67.8H378v67.8H365.9z"/>
		<path class="st13" d="M409.6,735c0,12,9.8,21.8,21.8,21.8h33.9v12.1h-33.9c-18.7,0-33.9-15.2-33.9-33.9s15.2-33.9,33.9-33.9h33.9
			v12.1h-33.9C419.4,713.3,409.6,723,409.6,735z"/>
		<path class="st13" d="M546.9,735c0,18.7-15.2,33.9-33.9,33.9s-33.9-15.2-33.9-33.9s15.2-33.9,33.9-33.9S546.9,716.4,546.9,735z
			 M534.8,735c0-12-9.8-21.8-21.8-21.8s-21.8,9.8-21.8,21.8c0,12,9.8,21.8,21.8,21.8S534.8,747.1,534.8,735z"/>
		<path class="st13" d="M625.6,756.7v12.1h-52.4l-0.1,0.1h-15.3l0.1-0.1l9.3-12.1l16.6-21.6l7.6-9.9l9.3-12h-43.1v-12.1h52.4h15.2
			l-9.4,12.1l-16.8,21.9l-7.6,9.9l-9.1,11.7H625.6z"/>
		<path class="st13" d="M711.1,768.9h-13.6l-6.2-12.1l-14.8-29l-14.8,29l-6.2,12.1H642l6.2-12.1l28.4-55.7l28.4,55.7L711.1,768.9z"
			/>
	</g>
</g>
</svg>
